<?xml version="1.0" encoding="UTF-8" standalone="no"?>
<svg width="420px" height="108px" viewBox="0 0 420 108" version="1.1" xmlns="http://www.w3.org/2000/svg" xmlns:xlink="http://www.w3.org/1999/xlink" xmlns:sketch="http://www.bohemiancoding.com/sketch/ns">
    <!-- Generator: Sketch 3.5.1 (25234) - http://www.bohemiancoding.com/sketch -->
    <title>moven-logo</title>
    <desc>Created with Sketch.</desc>
    <defs>
        <path id="path-1" d="M0,0.5 L419.9,0.5 L419.9,107.94 L0,107.94"></path>
    </defs>
    <g id="Page-1" stroke="none" stroke-width="1" fill="none" fill-rule="evenodd" sketch:type="MSPage">
        <g id="moven-logo" sketch:type="MSArtboardGroup">
            <path d="M332.9,105 L333.7,105.7 L347,105.7 L347.8,105 L347.8,69.5 L332.9,84.4 L332.9,105" id="Fill-1" fill="#000000" sketch:type="MSShapeGroup"></path>
            <mask id="mask-2" sketch:name="Clip 3" fill="white">
                <use xlink:href="#path-1"></use>
            </mask>
            <g id="Clip-3"></g>
            <path d="M366.6,32.9 C359.8,32.9 353,35.2 347.8,38.1 L347.8,35.8 L347,35 L333.4,35 L332.6,35.8 L332.6,48.2 L347.7,63.3 L347.7,54.6 C351.4,50.2 358.9,47.1 366.5,47.1 C379.3,47.1 385.3,54.6 385.3,66.7 L385.3,105.1 L386.1,105.9 L399.7,105.9 L400.5,105.1 L400.5,65.9 C400.5,45.6 389.3,32.9 366.6,32.9" id="Fill-2" fill="#000000" sketch:type="MSShapeGroup" mask="url(#mask-2)"></path>
            <path d="M126.2,70.4 C126.2,84 135.3,93.6 147.9,93.6 C160.7,93.6 169.6,83.9 169.6,70.4 C169.6,56.8 160.5,47.2 147.9,47.2 C135.3,47 126.2,56.9 126.2,70.4 L126.2,70.4 Z M185.6,70.4 C185.6,91.5 169.1,108 148,108 C126.9,108 110.4,91.4 110.4,70.4 C110.4,49.3 126.9,32.8 148,32.8 C169,32.9 185.6,49.3 185.6,70.4 L185.6,70.4 Z" id="Fill-4" fill="#000000" sketch:type="MSShapeGroup" mask="url(#mask-2)"></path>
            <path d="M199.8,35 L200.6,35.8 L220.2,85.4 L239.8,35.8 L240.6,35 L255.7,35 L256.5,35.8 L228,105 L227.2,105.8 L213.6,105.8 L212.8,105 L184.1,35.8 L184.9,35 C184.8,35 199.8,35 199.8,35" id="Fill-6" fill="#000000" sketch:type="MSShapeGroup" mask="url(#mask-2)"></path>
            <path d="M97.6,0.5 L80.9,0.5 L80.1,1.3 C79.7,19.9 67.7,35 49.1,35 C30.3,35 18.1,19.9 18.1,1.3 L17.3,0.5 L0.8,0.5 L0,1.3 L0,105 L0.8,105.8 L14.4,105.8 L15.2,105 L15.2,32.5 C24.3,43.1 34.3,49.9 49.3,49.9 C64.4,49.9 74.3,43.1 83.4,32.4 L83.4,104.8 L84.2,105.6 L97.8,105.6 L98.6,104.8 L98.6,1.3 L97.6,0.5" id="Fill-7" fill="#000000" sketch:type="MSShapeGroup" mask="url(#mask-2)"></path>
            <path d="M307.3,62.1 C306.5,53.8 299,47 290.8,47 C280.3,47 272.8,53.8 270.6,62.1 L307.3,62.1 L307.3,62.1 Z M322.2,98.2 C315.4,102.6 304.9,107.9 293.7,107.9 C272,107.9 254.5,90.6 254.5,69.7 C254.5,49.2 268.9,32.7 290.6,32.7 C309.4,32.7 322.2,49.2 322.2,69.5 C322.2,70.3 322.2,71.6 321.4,73.2 L319.9,74 L270,74 C271.9,85.2 281,93.6 293.8,93.6 C303.5,93.6 314.2,89.2 321.7,81.6 L322.5,82.4 L322.5,98.3 L322.2,98.2 L322.2,98.2 Z" id="Fill-8" fill="#000000" sketch:type="MSShapeGroup" mask="url(#mask-2)"></path>
            <path d="M412.2,99.1 L413,99.1 C413.9,99.1 414.5,98.7 414.5,98.2 C414.5,97.6 414.1,97.1 413,97.1 L412.1,97.1 L412.1,99.2 L412.2,99.1 L412.2,99.1 Z M411.7,103.1 L410.2,103.1 L410.2,96.2 C410.8,96 411.7,96 412.9,96 C414.2,96 414.8,96.2 415.4,96.6 C415.8,97 416.2,97.4 416.2,98.1 C416.2,98.8 415.6,99.4 414.7,99.6 C415.5,99.8 415.8,100.4 416,101.3 C416.2,102.4 416.4,102.8 416.6,103 L414.9,103 C414.7,102.8 414.5,102.1 414.3,101.3 C414.1,100.5 413.7,100.2 412.8,100.2 L412,100.2 L412,103.1 L411.7,103.1 L411.7,103.1 Z M407.5,99.4 C407.5,102.5 409.8,105 412.9,105 C416,105 418.3,102.5 418.3,99.4 C418.3,96.3 416,93.8 412.9,93.8 C409.8,93.9 407.5,96.4 407.5,99.4 L407.5,99.4 Z M419.9,99.4 C419.9,103.4 416.8,106.5 412.8,106.5 C408.8,106.5 405.7,103.4 405.7,99.4 C405.7,95.6 408.9,92.5 412.8,92.5 C416.8,92.6 419.9,95.6 419.9,99.4 L419.9,99.4 Z" id="Fill-9" fill="#000000" sketch:type="MSShapeGroup" mask="url(#mask-2)"></path>
        </g>
    </g>
</svg>
